<svg xmlns="http://www.w3.org/2000/svg" viewBox="0 0 520 220" role="img" aria-labelledby="title desc">
  <title id="title">VIIIN Logo</title>
  <desc id="desc">Purple phoenix inspired emblem with VIIIN text</desc>
  <defs>
    <linearGradient id="wing" x1="0" y1="0" x2="1" y2="1">
      <stop offset="0%" stop-color="#8b3fd6"/>
      <stop offset="100%" stop-color="#4f1f7a"/>
    </linearGradient>
    <linearGradient id="tail" x1="0" y1="0" x2="0" y2="1">
      <stop offset="0%" stop-color="#a56bff"/>
      <stop offset="100%" stop-color="#5a2d88"/>
    </linearGradient>
  </defs>

  <g transform="translate(15,18)">
    <path d="M145 70c-34-16-68-39-95-63 9 30 29 63 61 84 17 11 32 17 48 21-8-13-10-27-14-42z" fill="url(#wing)"/>
    <path d="M230 70c34-16 68-39 95-63-9 30-29 63-61 84-17 11-32 17-48 21 8-13 10-27 14-42z" fill="url(#wing)"/>
    <path d="M174 72c10-26 11-52 3-68 16 4 30 24 31 45 1 15-4 30-12 45h-22z" fill="#6a2f95"/>
    <path d="M169 75l20 0-11 38-18 54c-14 40-29 56-53 68 10-24 11-42 15-57 7-28 20-58 47-103z" fill="url(#tail)"/>
    <path d="M196 75l-20 0 11 38 18 54c14 40 29 56 53 68-10-24-11-42-15-57-7-28-20-58-47-103z" fill="#4c1f75" opacity="0.9"/>
    <path d="M184 54c14 0 23-10 26-19-12 6-24 6-35 1 3 9 10 18 9 18z" fill="#5f2b8c"/>
  </g>

  <text x="280" y="150" font-family="Vazirmatn, Arial, sans-serif" font-size="84" font-weight="700" fill="url(#wing)" letter-spacing="3">VIIIN</text>
</svg>
